<svg xmlns="http://www.w3.org/2000/svg" width="48" height="48" viewBox="0 0 48 48" fill="none">
  <path d="M38 28C41.3137 28 44 25.3137 44 22C44 18.6863 41.3137 16 38 16C37.5 16 37.0125 16.0461 36.5424 16.1331C35.5018 12.618 32.1017 10 28 10C23.2175 10 19.3044 13.4405 18.9617 17.9341C18.4836 17.9782 18.0136 18 17.5 18C13.3579 18 10 21.3579 10 25.5C10 29.6421 13.3579 33 17.5 33L38 33C38 33 38 28 38 28Z" fill="#E4E4E4"/>
  <path fill-rule="evenodd" clip-rule="evenodd" d="M10.5 26C10.5 23.5147 12.5147 21.5 15 21.5C15.1217 21.5 15.2398 21.5054 15.3577 21.5152C15.3197 21.178 15.3 20.8328 15.3 20.48C15.3 16.3162 18.6762 12.94 22.84 12.94C26.4193 12.94 29.4158 15.3566 30.2895 18.6471C30.4326 18.6242 30.578 18.6 30.7265 18.5842C31.4347 18.5102 32.1635 18.5 32.9 18.5C36.3242 18.5 39.1 21.3525 39.1 24.86C39.1 27.5345 37.2882 29.8215 34.9 30.5929" stroke="#BBBBBB" stroke-width="0.9"/>
</svg> 