<svg xmlns="http://www.w3.org/2000/svg" width="48" height="48" viewBox="0 0 48 48" fill="none">
  <circle cx="16" cy="18" r="8" fill="#FFB300"/>
  <path d="M16 6V4M16 32V30M28 18H30M2 18H4M24.8 9.2L26.2 7.8M5.8 28.2L7.2 26.8M24.8 26.8L26.2 28.2M5.8 7.8L7.2 9.2" stroke="#FFB300" stroke-width="2" stroke-linecap="round" stroke-linejoin="round"/>
  <path d="M38 28C41.3137 28 44 25.3137 44 22C44 18.6863 41.3137 16 38 16C37.5 16 37.0125 16.0461 36.5424 16.1331C35.5018 12.618 32.1017 10 28 10C23.2175 10 19.3044 13.4405 18.9617 17.9341C18.4836 17.9782 18.0136 18 17.5 18C13.3579 18 10 21.3579 10 25.5C10 29.6421 13.3579 33 17.5 33L38 33C38 33 38 28 38 28Z" fill="#E4E4E4"/>
</svg> 